<svg width="598" height="552" viewBox="0 0 598 552" fill="none" xmlns="http://www.w3.org/2000/svg">
<path d="M549.082 551.2H49.0045C36.2669 551.2 24.0529 545.487 15.0458 535.313C6.04223 525.139 0.980103 511.343 0.980103 496.956V54.244C0.980103 39.8567 6.04188 26.0609 15.0458 15.8874C24.0529 5.71378 36.2669 0 49.0045 0H549.082C561.817 0 574.031 5.71348 583.038 15.8874C592.045 26.0609 597.103 39.8567 597.103 54.244V496.956C597.103 511.343 592.045 525.139 583.038 535.313C574.031 545.486 561.817 551.2 549.082 551.2ZM49.0045 42.2948C43.1633 42.2948 38.4245 47.643 38.4245 54.245V496.957C38.4245 503.559 43.1629 508.907 49.0045 508.907H549.082C554.886 508.85 559.567 503.517 559.567 496.957V54.245C559.567 47.6856 554.886 42.3528 549.082 42.2948H49.0045Z" fill="#000080"/>
<path d="M114.074 459.524H483.935C487.904 459.65 491.771 458.09 494.77 455.144C497.765 452.203 499.672 448.093 500.111 443.637C500.547 439.177 499.488 434.698 497.136 431.08L446.116 352.837C443.42 348.623 439.237 345.947 434.652 345.497C430.07 345.051 425.539 346.881 422.244 350.511L369.823 406.869L248.128 220.248V220.244C245.054 215.515 240.114 212.789 234.92 212.958C229.726 213.128 224.936 216.169 222.104 221.094L100.409 431.928L100.412 431.924C98.3087 435.585 97.4612 439.983 98.033 444.293C98.6015 448.607 100.545 452.536 103.503 455.34C106.458 458.146 110.219 459.634 114.08 459.523L114.074 459.524Z" fill="#000080"/>
<path d="M469.608 159.877C469.608 194.505 444.752 222.579 414.096 222.579C383.435 222.579 358.583 194.505 358.583 159.877C358.583 125.246 383.436 97.1755 414.096 97.1755C444.752 97.1755 469.608 125.247 469.608 159.877Z" fill="#000080"/>
</svg>
